<?xml version="1.0" encoding="utf-8"?>
<!-- Generator: Adobe Illustrator 15.0.0, SVG Export Plug-In . SVG Version: 6.00 Build 0)  -->
<!DOCTYPE svg PUBLIC "-//W3C//DTD SVG 1.1//EN" "http://www.w3.org/Graphics/SVG/1.1/DTD/svg11.dtd">
<svg version="1.1" id="woman_copy" xmlns="http://www.w3.org/2000/svg" xmlns:xlink="http://www.w3.org/1999/xlink" x="0px" y="0px"
	 width="22px" height="40px" viewBox="0 0 22 40" enable-background="new 0 0 22 40" xml:space="preserve">
<path fill="#FFFFFF" d="M0,0v40h22V0H0z M11,0.732c1.755,0,3.177,1.423,3.177,3.177c0,1.755-1.422,3.177-3.177,3.177
	c-1.754,0-3.177-1.422-3.177-3.177C7.823,2.155,9.246,0.732,11,0.732z M18.875,21.704c-0.679,0.2-1.389-0.188-1.588-0.867
	l-2.456-8.381h-0.704l4.311,14.709h-3.374v10.256c0,1.02-0.827,1.847-1.848,1.847c-1.02,0-1.846-0.827-1.846-1.847V27.165h-0.697
	v10.256H10.63c0,1.02-0.827,1.847-1.847,1.847c-1.021,0-1.847-0.827-1.847-1.847c0-0.134,0.016-0.264,0.043-0.39v-9.866H3.625
	l4.311-14.709H7.18l-2.456,8.381c-0.199,0.679-0.91,1.067-1.588,0.867c-0.679-0.196-1.068-0.908-0.869-1.588l2.856-9.749
	l0.016-0.002c0.522-1.442,1.891-2.479,3.514-2.479h4.704c1.623,0,2.992,1.037,3.514,2.479l0.016,0.002l2.857,9.749
	C19.942,20.796,19.553,21.508,18.875,21.704z"/>
</svg>
