<?xml version="1.0" encoding="utf-8"?>
<!-- Generator: Adobe Illustrator 15.0.0, SVG Export Plug-In . SVG Version: 6.00 Build 0)  -->
<!DOCTYPE svg PUBLIC "-//W3C//DTD SVG 1.1//EN" "http://www.w3.org/Graphics/SVG/1.1/DTD/svg11.dtd">
<svg version="1.1" id="man_copy" xmlns="http://www.w3.org/2000/svg" xmlns:xlink="http://www.w3.org/1999/xlink" x="0px" y="0px"
	 width="22px" height="40px" viewBox="0 0 22 40" enable-background="new 0 0 22 40" xml:space="preserve">
<path fill="#FFFFFF" d="M0,0v40h22V0H0z M11,0.732c1.755,0,3.177,1.423,3.177,3.177c0,1.755-1.422,3.177-3.177,3.177
	c-1.754,0-3.177-1.422-3.177-3.177C7.823,2.155,9.246,0.732,11,0.732z M18.359,11.884v9.851c0,0.763-0.617,1.381-1.381,1.381
	c-0.763,0-1.381-0.618-1.381-1.381v-8.967h-0.535v0.124v10.224v14.307c0,1.02-0.826,1.848-1.848,1.848
	c-1.02,0-1.846-0.828-1.846-1.848V23.114h-0.697v14.307H10.63c0,1.021-0.827,1.847-1.847,1.847c-1.021,0-1.847-0.826-1.847-1.847
	c0-0.134,0.016-0.264,0.043-0.39V23.114H6.937V12.767H6.401v8.967c0,0.763-0.618,1.381-1.381,1.381s-1.38-0.619-1.38-1.383v-9.85
	v-0.407c0-2.032,1.647-3.679,3.68-3.68h7.362c2.03,0,3.68,1.647,3.68,3.68v0.408H18.359z"/>
</svg>
